<mxfile host="app.diagrams.net" modified="2020-09-24T07:55:51.259Z" agent="5.0 (Macintosh; Intel Mac OS X 10_15_6) AppleWebKit/537.36 (KHTML, like Gecko) Chrome/85.0.4183.102 Safari/537.36" etag="AmcmnlK2Z4j5VCmWLJZI" version="13.6.2" type="github">
  <diagram id="Yf6-JD-6mPCT7eiT00MC" name="Page-1">
    <mxGraphModel dx="230" dy="155" grid="1" gridSize="10" guides="1" tooltips="1" connect="1" arrows="1" fold="1" page="1" pageScale="1" pageWidth="827" pageHeight="1169" math="0" shadow="0">
      <root>
        <mxCell id="0" />
        <mxCell id="1" parent="0" />
        <mxCell id="DO-4hkAGwzYn5v-B-sHA-15" value="" style="group" vertex="1" connectable="0" parent="1">
          <mxGeometry x="180" y="300" width="110" height="50" as="geometry" />
        </mxCell>
        <mxCell id="DO-4hkAGwzYn5v-B-sHA-11" value="" style="rounded=0;whiteSpace=wrap;html=1;" vertex="1" parent="DO-4hkAGwzYn5v-B-sHA-15">
          <mxGeometry y="10" width="110" height="40" as="geometry" />
        </mxCell>
        <mxCell id="DO-4hkAGwzYn5v-B-sHA-12" value="" style="endArrow=none;html=1;exitX=0.25;exitY=1;exitDx=0;exitDy=0;" edge="1" parent="DO-4hkAGwzYn5v-B-sHA-15">
          <mxGeometry width="50" height="50" relative="1" as="geometry">
            <mxPoint x="33" y="50" as="sourcePoint" />
            <mxPoint x="33" y="10" as="targetPoint" />
          </mxGeometry>
        </mxCell>
        <mxCell id="DO-4hkAGwzYn5v-B-sHA-14" value="" style="endArrow=none;html=1;exitX=0.75;exitY=1;exitDx=0;exitDy=0;" edge="1" parent="DO-4hkAGwzYn5v-B-sHA-15">
          <mxGeometry width="50" height="50" relative="1" as="geometry">
            <mxPoint x="72" y="50" as="sourcePoint" />
            <mxPoint x="72" y="10" as="targetPoint" />
          </mxGeometry>
        </mxCell>
      </root>
    </mxGraphModel>
  </diagram>
</mxfile>
